<?xml version="1.0" standalone="no"?>
<!DOCTYPE svg PUBLIC "-//W3C//DTD SVG 1.1//EN" "http://www.w3.org/Graphics/SVG/1.1/DTD/svg11.dtd" >
<svg xmlns="http://www.w3.org/2000/svg">
<metadata>Generated by IcoMoon</metadata>
<defs>
<font id="icomoon" horiz-adv-x="512">
<font-face units-per-em="512" ascent="480" descent="-32" />
<missing-glyph horiz-adv-x="512" />
<glyph unicode="&#x20;" d="" horiz-adv-x="256" />
<glyph unicode="&#xe600;" d="M345.856 201.216l-91.136-94.976-91.136 95.232c-72.192-37.888-122.112-119.040-122.112-213.248h426.24c0.256 94.208-49.92 175.36-121.856 212.992zM371.2 332.032c0-70.4-51.968-127.488-116.224-127.488s-116.224 57.088-116.224 127.488c0 70.4 51.968 127.488 116.224 127.488 64 0.256 116.224-56.832 116.224-127.488z" />
<glyph unicode="&#xe601;" d="M213.248 110.848c-23.808 0-42.752-18.944-42.752-42.496 0-23.296 19.2-42.496 42.752-42.496 23.808 0 42.752 18.944 42.752 42.496s-19.2 42.496-42.752 42.496zM384.512 110.848c-23.808 0-42.752-18.944-42.752-42.496 0-23.296 19.2-42.496 42.752-42.496s42.752 18.944 42.752 42.496c0.256 23.552-18.944 42.496-42.752 42.496zM455.936 365.568h-278.272c-3.072 12.288-6.144 24.32-9.216 35.84-4.352 11.776-12.288 18.176-23.296 19.968-1.28 0.256-2.304 0.768-3.584 0.768h-0.768c-28.672 0-57.344 0-86.016 0h-13.312c-7.936 0-14.336-6.4-14.336-14.080v-28.416c0-7.936 6.4-14.080 14.336-14.080h13.312c21.248 0 42.496 0 64 0 17.152-63.744 33.536-141.824 50.688-205.568 5.12-13.312 14.336-20.224 27.648-20.736 71.68 0 143.104 0 214.784 0 12.032 0 24.576 8.704 27.648 20.736 13.824 54.528 27.648 109.824 41.472 164.352 1.28 4.352 2.304 8.448 3.584 12.8 0 15.616-12.8 28.416-28.672 28.416zM389.632 195.584h-170.24c-6.4 25.344-12.8 52.48-19.2 79.616-2.56 11.264-5.376 22.528-7.936 33.536h226.048l-28.672-113.152z" />
<glyph unicode="&#xe602;" d="M492.288 62.208l-118.272 111.616c17.92 27.648 28.16 60.16 28.16 94.976 0 101.12-92.672 188.416-199.68 188.416s-193.536-81.92-193.536-182.784 92.672-188.416 199.68-188.416c35.584 0 68.864 9.216 97.536 24.832l118.784-112.384c11.52-11.008 30.464-11.008 42.24 0l29.44 27.904c11.52 11.008 7.168 24.832-4.352 35.84zM208.384 142.336c-73.984 0-140.032 62.208-140.032 132.352s59.904 126.72 134.144 126.72c73.984 0 140.032-62.208 140.032-132.352s-60.16-126.72-134.144-126.72z" />
<glyph unicode="&#xe603;" d="M512 479.488c-0.512-0.512-1.28-1.024-1.792-1.536-83.712-83.712-167.68-167.68-251.392-251.392-0.768-0.768-1.28-1.792-2.56-3.584-1.28 1.536-1.536 2.56-2.304 3.328-83.968 83.712-167.68 167.424-251.392 251.136-0.768 0.768-1.792 1.28-2.56 2.048 0.256 0.256 0.256 0.512 0.256 0.512 0.768 0 1.28 0 2.048 0 169.216 0 338.176 0 507.392 0 0.768 0 1.536-0.256 2.304-0.512zM333.824 409.344c-5.12 5.12-9.728 9.984-14.592 14.336-0.768 0.768-2.048 1.28-3.328 1.28-8.96 0-17.92 0-26.88 0-1.28 0-2.56-0.512-3.584-1.536-7.168-6.912-14.080-14.080-21.248-20.992-0.512-0.512-1.28-1.28-2.304-2.304 2.048 8.704 4.096 16.64 6.144 24.576-0.512 0.256-0.768 0.256-0.768 0.256-25.856 0-51.456 0.256-77.312-0.256-7.168 0-12.544-4.096-15.616-10.496s-2.304-12.288 1.792-17.92c1.792-2.56 4.352-4.608 6.4-6.912 3.072-3.072 6.144-6.144 9.472-9.216 1.536-1.536 2.304-3.072 1.536-5.376-0.768-2.048-2.56-2.56-4.352-2.56-1.024 0-1.792 0-2.816 0-8.96 0-17.92 0-26.88 0-0.768 0-2.304-0.768-2.56-1.28-1.536-5.632-2.816-11.264-4.352-16.896 0.512 0 0.768-0.256 1.024-0.256 17.408 0 35.072-0.256 52.48 0.256 7.424 0.256 13.056 4.352 15.872 11.52 2.816 6.912 1.28 13.312-3.84 18.688-4.608 4.608-9.216 9.216-13.824 13.824-1.792 1.792-2.56 3.584-1.792 5.888s2.816 2.56 5.12 2.56c9.472 0 19.2 0 28.672 0 0.768 0 1.536 0 2.304-0.256-4.352-17.408-8.704-34.816-13.056-51.968 8.448 0 16.64 0 24.832 0 1.792 7.168 3.584 14.080 5.376 21.76 6.912-7.168 13.568-13.824 20.224-20.224 0.768-0.768 2.304-1.536 3.584-1.536 8.96 0 17.664 0 26.624 0 1.28 0 2.56 0.512 3.584 1.28 22.784 22.528 45.312 45.312 68.096 67.84 0.512 0.512 0.768 1.024 1.28 1.536-0.512 0-1.024 0.256-1.28 0.256-9.216 0-18.176 0-27.392 0-1.024 0-2.304-0.768-3.072-1.536-4.352-4.608-8.96-9.472-13.568-14.336zM293.12 369.664c-5.12 4.864-10.24 9.984-15.104 15.104 8.192 8.192 16.64 16.64 24.832 24.832 5.12-5.12 10.24-10.24 15.104-15.104-8.448-8.192-16.64-16.64-24.832-24.832z" />
<glyph unicode="&#xe604;" d="M243.712 110.080l-34.56 59.392c0 0-26.368 44.8-51.712 98.56-17.152 40.96 22.272 61.44 22.272 61.44s-3.072 63.488-5.12 143.36c-80.896-13.824-96.256-46.848-100.096-56.576-28.416-102.4 20.224-232.96 37.376-261.12 101.376-162.816 196.608-182.272 211.712-179.456 47.616 1.024 97.28 33.024 97.28 33.024s0 0-114.432 88.832c-47.616-17.664-62.72 12.544-62.72 12.544zM233.472 353.792c0 0-2.048 75.008-2.048 95.488s-40.448 23.296-40.448 23.296l2.048-137.472c22.272-8.704 40.448 18.688 40.448 18.688zM441.344 65.28c-40.448 30.208-75.008 57.6-75.008 57.6s-18.176 14.592-48.64-13.568l117.504-88.576c0-0.256 20.224 31.744 6.144 44.544z" />
<glyph unicode="&#xe605;" d="M280.064-32v192h-62.464v72.704h62.464v51.712c0 0-8.96 102.4 104.448 102.4 13.056 0 42.496-2.048 50.176-3.328 0-11.776 0-68.096 0-68.096h-42.496c0 0-34.304 4.096-34.304-30.208v-52.224h73.472l-9.728-72.96h-63.744v-192h-77.824z" />
<glyph unicode="&#xe606;" d="M500.736 380.928c-13.312-9.472-48.64-16.896-57.6-16.64 29.44 18.176 41.216 47.104 44.544 57.088-33.28-20.992-64-25.856-64-25.856s0 0 0 0c-18.176 19.968-44.288 32.256-73.216 32.256-55.296 0-100.096-45.568-100.096-101.888 0-8.704 1.024-17.152 3.072-25.088 0 0 0 0 0 0-126.976 5.376-201.728 99.328-206.592 109.056-41.216-74.496 16.64-129.024 29.184-136.96-21.504-3.072-37.632 8.448-44.8 12.288 1.28-81.408 69.12-100.352 78.848-102.912-21.504-6.144-32.768-2.56-43.008-2.56 23.808-67.84 81.664-69.888 92.416-70.912-66.816-52.736-130.048-44.8-148.224-42.752 81.408-50.176 147.2-46.080 154.368-46.080 121.088 0 186.112 69.888 203.008 87.552 94.72 98.048 81.92 218.624 81.92 218.624 33.536 26.112 47.104 48.384 50.176 54.784z" />
<glyph unicode="&#xe607;" d="M260.096 467.968c57.088-1.792 108.544-19.456 152.32-57.344 54.528-47.616 81.152-108.544 75.776-180.224-4.864-63.232-33.792-115.456-84.48-155.392-24.064-18.944-50.944-32-80.384-40.448-6.656-1.792-10.752-6.4-14.592-11.264-11.52-14.592-25.856-26.368-37.888-40.192-4.608-5.376-7.424-3.84-11.264 0.768-8.192 9.472-17.408 18.176-25.088 27.904-9.984 13.056-23.552 18.432-38.912 22.784-84.992 24.32-140.288 79.616-161.024 165.376-17.152 70.912 1.792 134.656 49.408 189.696 33.28 38.4 75.776 61.44 124.416 72.96 17.152 3.84 31.232 6.4 51.712 5.376zM259.072 127.232c16.384 0 16.64 0 17.408 16.64 0.256 5.376 2.048 8.704 7.424 10.752 9.472 4.096 18.432 8.704 24.576 17.92 23.808 34.56 12.8 79.36-24.576 98.56-12.544 6.4-25.6 11.264-36.608 19.968-9.984 7.68-8.192 21.248 2.816 27.392 8.96 5.12 16.64 1.792 23.296-3.84 7.68-6.4 12.8-4.864 19.456 2.048 20.48 21.248 20.736 24.576-5.12 38.4-8.448 4.608-11.776 9.984-11.264 18.944 0.256 4.352 0.768 9.728-4.864 11.008-8.192 1.536-16.896 1.28-25.344 0-3.84-0.512-5.376-4.096-5.12-7.424 1.28-12.288-4.096-19.456-15.872-22.784-3.328-1.024-6.144-3.84-8.96-6.144-31.744-25.088-25.6-86.016 13.568-105.984 12.032-6.144 24.32-12.032 36.096-18.944 7.168-4.352 13.056-10.752 8.96-20.224-4.096-9.216-12.032-12.288-21.76-11.52-11.008 1.024-19.712 6.144-26.368 14.336-6.144 7.68-12.032 9.984-19.456 1.536-3.584-4.096-8.448-7.168-12.8-10.24-6.912-4.864-7.424-10.24-2.56-16.896 9.728-13.824 23.296-22.272 39.168-27.136 6.144-2.048 9.216-5.12 9.728-11.52 1.792-14.848 1.792-14.848 18.176-14.848z" />
<glyph unicode="&#xe608;" d="M249.6 463.872c67.072-1.536 121.6-22.272 165.632-65.792 46.848-46.336 69.888-103.936 64-169.984-5.632-61.184-33.792-111.872-82.688-150.528-23.552-18.688-49.92-31.488-78.848-39.936-6.4-1.792-10.752-6.144-14.336-10.752-10.24-13.056-23.040-23.808-34.304-36.352-5.888-6.656-11.264-6.656-17.152 0-7.424 8.448-15.616 16.128-22.272 25.088-9.472 12.8-22.784 17.408-37.376 21.76-83.456 24.064-137.728 78.080-158.464 162.304-16.896 69.12 1.28 131.584 47.36 185.856 32.512 38.4 74.496 61.44 122.88 72.704 16.384 3.584 28.416 5.12 45.568 5.632zM210.688 312.576c0.768 9.216-2.048 19.712-3.84 30.464-4.608 26.112-7.424 27.648-31.232 17.92-39.68-16.64-51.712-44.8-37.12-84.48 22.272-59.904 61.44-104.96 116.736-136.192 14.848-8.448 30.72-14.336 47.36-18.688 17.408-4.352 31.232 3.072 42.752 15.36 12.8 14.080 18.432 30.976 16.64 49.92-0.512 5.12-4.864 6.912-9.472 7.168-17.664 0.768-35.328 1.536-52.992 2.304-5.632 0.256-8.96-2.304-10.752-8.192-3.84-12.544-7.168-13.056-16.896-3.84-17.92 16.896-34.304 35.328-50.688 53.504-10.496 11.52-19.968 23.808-29.952 35.584-4.352 5.376-5.12 10.24 3.072 12.032 18.944 4.608 16.128 6.912 16.384 27.136z" />
<glyph unicode="&#xe609;" d="M245.76 466.944c69.888-1.792 124.672-23.040 168.96-66.816 46.592-46.080 69.376-103.424 63.488-168.96-5.632-61.696-33.792-112.64-82.944-151.296-23.808-18.688-50.176-31.488-78.848-39.68-6.4-1.792-10.496-6.4-14.336-11.008-11.264-14.336-25.088-25.856-37.376-39.424-3.84-4.352-6.4-4.608-10.24-0.256-8.192 9.472-17.664 18.176-25.344 28.16-9.984 12.8-23.296 17.92-38.144 22.272-83.456 24.064-135.936 78.592-158.72 162.304-6.4 23.296-8.192 47.36-4.352 70.912 6.656 42.752 23.040 81.664 52.224 114.688 33.28 37.632 74.752 61.184 122.88 72.704 16.64 4.096 30.464 6.4 42.752 6.4zM127.232 182.272c0-1.536 0-2.816 0-4.352 0.256-3.84-1.28-8.704 3.84-10.24 4.608-1.536 7.168 2.56 9.984 5.12 4.096 4.096 8.192 8.192 12.288 12.288 12.288 12.032 22.272 11.008 36.608-4.096 9.984-10.496 9.728-23.040-1.024-33.024-4.864-4.864-9.984-9.472-14.592-14.592-4.864-5.376-4.096-9.216 3.584-9.984 11.008-0.768 20.48 0.256 29.696 8.96 11.52 11.008 17.152 22.528 14.848 38.144-1.536 11.008 2.816 18.944 10.752 26.624 23.808 22.784 47.36 45.824 69.632 69.888 11.776 12.8 24.32 18.176 41.728 17.152 22.528-1.28 41.728 21.76 38.656 44.288-1.024 7.168-4.096 8.192-9.216 3.584-5.632-5.12-10.752-10.752-16.384-15.872-11.52-11.008-24.064-8.704-38.144 6.4-9.216 9.984-8.704 22.528 1.536 32.256 4.352 4.096 8.96 8.448 13.312 12.8 2.304 2.304 5.12 4.608 3.84 8.192-1.28 4.096-5.12 3.584-8.192 3.84-24.576 1.792-42.752-15.104-42.752-39.68 0-3.584-0.256-7.168 0-10.752 0.768-8.704-2.304-15.104-8.704-20.992-23.552-23.040-47.36-45.824-69.632-69.888-13.056-14.080-26.368-21.248-46.080-19.456-18.176 0.768-35.584-17.92-35.584-36.608z" />
<glyph unicode="&#xe60a;" d="M24.064 245.248c1.28 55.296 18.944 101.632 54.016 141.824 35.584 40.448 80.384 65.024 132.864 73.728 62.976 10.24 121.344-2.56 173.824-40.448 47.616-34.56 78.080-80.64 87.808-138.24 8.192-48.128 0.512-94.976-24.064-138.24-29.696-52.224-73.728-86.272-130.56-104.448-6.656-2.048-12.032-5.888-16.64-11.264-11.776-13.312-24.576-25.6-36.608-38.656-5.376-5.888-8.704-4.864-13.568 0.768-9.728 11.264-20.224 21.76-30.208 32.768-6.4 7.168-14.592 10.24-23.552 12.544-83.712 20.736-139.264 71.936-165.632 154.112-6.144 18.688-6.912 38.4-7.68 55.552zM382.464 231.68c0 19.2 0.512 38.4-0.256 57.6-0.512 13.568-6.144 26.112-16.64 34.816-25.6 21.248-52.224 41.216-77.568 62.72-10.24 8.704-18.688 8.96-30.208 3.584-37.376-17.408-75.008-34.048-112.384-50.944-12.288-5.632-19.2-14.336-19.2-28.416 0.256-41.728 0.256-83.2 0-124.928 0-7.68 2.56-12.8 9.216-17.152 31.744-20.224 62.976-40.96 94.72-61.44 7.936-5.12 17.152-7.68 25.856-3.84 38.912 17.408 77.312 35.584 116.224 53.248 7.68 3.328 10.752 8.704 10.752 16.896-0.768 19.456-0.512 38.656-0.512 57.856zM256.512 186.368c0 15.104 0.256 30.464 0 45.568-0.256 7.936 3.072 12.8 10.24 16.128 27.904 12.544 56.064 25.088 83.968 37.632 8.96 4.096 12.032 2.304 12.032-7.68 0.256-31.488 0-62.976 0-94.464 0-5.888-2.048-9.984-7.936-12.8-27.648-12.288-55.296-24.832-82.944-37.376-14.080-6.4-15.104-5.632-15.36 9.472 0 14.592 0 29.184 0 43.52zM269.056 371.968c5.12 0.256 8.192-2.304 11.264-4.864 20.992-16.64 41.728-33.28 62.72-50.176 9.216-7.424 8.96-9.216-2.048-14.080-27.904-12.544-56.064-25.088-83.968-37.888-4.864-2.304-8.704-2.304-13.056 0.768-25.088 17.664-50.176 35.328-75.264 53.248-3.584 2.56-6.656 5.376 0 8.448 32 14.336 64 28.672 95.744 43.008 1.792 1.024 3.584 1.28 4.608 1.536zM237.056 188.416c0-16.384-0.256-32.512 0-48.896 0-8.96-3.072-9.984-10.24-5.376-24.064 15.36-48.128 30.72-72.192 46.080-5.12 3.328-7.424 7.424-7.168 13.312 0.256 34.304 0 68.608 0 102.912 0 3.072-1.28 7.168 2.304 8.704 3.072 1.536 5.12-1.792 7.424-3.328 23.808-16.896 47.616-33.792 71.68-50.688 5.632-3.84 8.192-8.448 7.936-15.36 0-15.36 0.256-31.488 0.256-47.36z" />
<glyph unicode="&#xe60b;" d="M240.64 455.424c68.352-1.792 121.6-22.528 164.864-65.024 45.568-44.8 67.84-100.864 61.952-164.864-5.376-60.16-33.024-109.824-80.896-147.712-23.040-18.176-48.896-30.72-76.8-38.656-6.4-1.792-10.24-6.144-14.080-10.752-11.008-13.824-24.576-25.344-36.352-38.4-3.584-4.096-6.144-4.608-9.984-0.256-7.936 9.216-17.152 17.92-24.832 27.392-9.728 12.288-22.528 17.664-37.12 21.76-81.408 23.296-132.608 76.8-154.88 158.208-6.144 22.784-7.936 46.336-4.352 69.12 6.656 41.728 22.528 79.616 50.944 111.872 32.768 37.12 72.96 59.904 120.064 71.168-36.864-8.704 15.104 6.144 41.472 6.144zM163.072 238.592c0-37.12 0-73.984 0-111.104 0-4.096-1.792-9.216 2.56-11.776 4.096-2.304 7.936 1.536 11.52 3.584 40.192 23.040 80.64 46.336 120.832 69.632 25.088 14.336 49.92 29.184 74.752 43.776 7.168 4.096 7.424 7.68 0 11.776-5.12 2.816-9.984 6.656-15.104 9.472-60.416 34.816-120.832 69.376-181.504 104.192-11.008 6.4-13.056 5.376-13.056-7.424 0-37.376 0.256-74.752 0-112.128z" />
<glyph unicode="&#xe60c;" d="M246.016 459.776c66.048 0 113.664-20.48 156.928-61.184 34.816-32.768 57.856-71.936 65.536-118.784 7.936-47.872 1.024-93.952-23.296-136.96-29.184-51.712-72.448-85.248-128.512-103.168-6.656-2.048-11.776-5.632-16.64-11.008-11.776-13.312-24.576-25.856-36.864-38.656-4.352-4.608-7.424-5.12-12.032 0.256-9.728 11.264-20.48 22.016-30.464 33.024-5.888 6.656-13.568 10.24-22.016 12.288-68.096 15.36-118.784 54.272-150.528 116.224-17.664 34.56-23.552 71.68-20.224 111.104 4.352 50.432 25.344 92.672 59.648 128.256 30.208 31.232 67.584 51.2 110.592 61.44 17.152 4.096 26.112 7.168 47.872 7.168zM252.672 152.064c42.752 0 85.76 0 128.512 0 4.096 0 9.472-2.048 11.776 2.816 2.048 4.352-1.792 7.936-3.84 11.52-17.408 29.952-34.56 59.904-51.968 89.856-25.344 44.288-50.688 88.32-76.288 132.352-6.144 10.496-7.68 10.24-13.568-0.256-14.592-24.576-28.928-49.152-43.264-73.984-28.928-50.176-57.856-100.608-86.528-151.040-5.632-9.984-4.864-11.008 6.912-11.264 42.752 0 85.504 0 128.256 0zM234.24 311.808c0 7.936 0 15.872 0 15.872 0 2.56-0.512 5.632 0.512 7.424 7.168 10.496 18.176 3.84 27.392 5.376 5.376 0.768 10.24-1.536 10.24-7.936-0.256-18.944 2.56-37.888-2.048-56.576-2.304-9.472-1.536-19.2-4.608-28.416-2.56-7.68-7.168-9.984-14.336-9.472-7.424 0.768-11.776 4.608-12.544 12.032-1.792 17.92-7.168 43.264-4.608 61.696zM252.928 225.024c16.896 0 24.32-5.888 24.064-19.456 0-13.312-10.752-23.552-24.832-23.552s-24.064 10.24-23.808 24.064c0.512 14.080 6.656 18.944 24.576 18.944z" />
<glyph unicode="&#xe60d;" d="M256 11.008c-117.504 0-212.992 95.488-212.992 212.992s95.488 212.992 212.992 212.992 212.992-95.488 212.992-212.992-95.488-212.992-212.992-212.992zM256 396.032c-94.72 0-172.032-77.312-172.032-172.032s77.312-172.032 172.032-172.032 172.032 77.056 172.032 172.032-77.312 172.032-172.032 172.032zM348.16 279.552l-36.096 36.352-56.064-55.808-56.064 55.808-36.096-36.352 55.808-55.552-55.808-55.552 36.096-36.352 56.064 55.808 56.064-55.808 36.096 36.352-55.808 55.552z" />
<glyph unicode="&#xe60e;" d="M152.832 224.512c-0.512 8.96 2.304 15.872 8.448 22.016 51.2 52.224 97.28 109.568 150.016 160.256 15.36 14.848 26.368 17.408 36.608 8.192 12.288-11.008 12.8-27.136-0.256-42.496-18.176-21.248-38.912-39.68-57.088-60.928-20.736-24.064-43.52-46.336-65.28-69.376-14.080-14.848-14.080-20.992 0-35.84 38.912-41.216 78.080-82.432 116.736-123.904 4.608-4.864 8.448-10.496 12.544-16.128 9.728-13.056 3.328-24.32-6.144-33.024-9.984-8.96-21.504-6.912-30.464 2.304-27.392 27.904-54.528 56.32-81.408 84.736-24.576 26.112-48.128 52.736-72.704 78.848-7.168 7.68-12.032 15.104-11.008 25.344z" />
<glyph unicode="&#xe60f;" d="M359.168 224.512c0.512 8.96-2.304 15.872-8.448 22.016-51.2 52.224-97.28 109.568-150.016 160.256-15.36 14.848-26.368 17.408-36.608 8.192-12.288-11.008-12.8-27.136 0.256-42.496 18.176-21.248 38.912-39.68 57.088-60.928 20.736-24.064 43.52-46.336 65.28-69.376 14.080-14.848 14.080-20.992 0-35.84-38.912-41.216-78.080-82.432-116.736-123.904-4.608-4.864-8.448-10.496-12.544-16.128-9.728-13.056-3.328-24.32 6.144-33.024 9.984-8.96 21.504-6.912 30.464 2.304 27.392 27.904 54.528 56.32 81.408 84.736 24.576 26.112 48.128 52.736 72.704 78.848 7.168 7.68 12.032 15.104 11.008 25.344z" />
<glyph unicode="&#xe610;" d="M357.12 224c0-55.847-45.273-101.12-101.12-101.12s-101.12 45.273-101.12 101.12c0 55.847 45.273 101.12 101.12 101.12s101.12-45.273 101.12-101.12z" />
<glyph unicode="&#xe611;" d="M405.76 355.072c0-7.168 0.512-14.336-0.256-21.248-0.512-7.168 1.024-9.984 8.96-9.472 14.592 0.768 29.44 0 44.288 0.256 6.144 0.256 8.448-1.28 8.192-7.936-0.512-15.36 1.024-13.056-13.312-13.312-13.824 0-27.904-0.256-41.728 0-5.376 0-6.656-1.792-6.656-6.912 0.256-15.616-0.256-31.232 0.256-46.848 0.256-5.888-1.28-7.936-7.424-7.68-17.152 0.512-13.824-1.792-14.080 13.824-0.256 13.568-0.256 27.136 0 40.704 0 5.12-1.536 6.912-6.912 6.912-15.36-0.256-30.72 0.256-45.824-0.256-5.888-0.256-8.448 1.024-8.192 7.936 0.512 13.312 0 13.312 13.568 13.312s27.136 0.256 40.704 0c5.376-0.256 6.656 1.792 6.656 6.912-0.256 15.616 0 31.232-0.256 46.848 0 5.632 1.28 8.192 7.68 7.936 17.152-0.512 13.568 1.792 14.080-13.824 0.256-5.888 0.256-11.52 0.256-17.152zM241.152 177.664c-11.52 9.984-23.808 19.2-35.072 29.44-10.752 9.728-10.752 22.272-1.28 33.024 4.096 4.608 8.704 8.96 13.568 12.8 16.384 12.8 28.416 28.16 30.976 49.664 3.072 26.624-6.144 48.384-25.6 66.048-2.048 1.792-5.888 3.072-4.608 6.4 1.024 2.816 4.608 1.024 6.912 1.28 3.584 0.256 7.424 0.512 11.008 0 12.544-1.792 20.48 7.168 30.464 11.776-0.256 0.768-0.512 1.536-0.768 2.304-34.048 0-67.84 0.512-101.888-0.256-17.408-0.256-34.048-5.12-49.664-13.056-30.464-15.872-49.92-48.896-46.592-79.616 4.352-39.936 38.144-67.584 79.36-65.28 11.52 0.768 11.52 0.512 8.704-10.496-1.28-5.376-1.28-10.496 0-15.872 1.536-6.912 5.12-12.544 9.216-17.92 4.096-5.12 2.304-6.144-3.328-6.656-8.96-0.768-17.92-1.536-26.88-2.816-23.040-3.328-44.8-9.472-63.744-23.808-22.784-17.152-32.512-44.8-23.552-68.096 7.68-20.736 24.32-32.256 44.288-39.424 25.344-9.472 51.712-9.728 77.824-6.4 26.368 3.328 50.432 12.288 70.144 30.976 15.616 14.592 24.576 32.768 24.832 54.016 0.768 20.992-8.704 38.4-24.32 51.968zM133.12 258.816c-20.48 23.552-27.648 51.2-23.552 81.92 2.56 17.92 13.056 29.952 30.464 34.816 17.408 5.12 32.512-0.512 44.544-13.568 17.92-19.712 24.832-43.776 25.856-62.976 0.256-35.84-12.288-51.456-39.424-55.296-15.104-2.048-28.16 3.84-37.888 15.104zM212.992 67.584c-14.336-8.704-30.208-10.752-47.616-10.496-19.712 0-39.68 3.328-57.088 15.36-33.28 22.528-31.232 66.816 4.608 84.992 21.76 11.264 45.568 13.056 69.632 12.288 1.536 0 3.328-0.512 4.608-1.536 13.312-9.472 27.392-18.432 37.888-31.232 18.944-22.528 13.312-54.272-12.032-69.376z" />
<glyph unicode="&#xe612;" d="M245.504 429.312c7.424 0 15.104 0 22.528 0 1.024-0.256 2.304-0.768 3.328-0.768 25.088-1.792 49.408-7.424 71.936-18.688 73.472-36.352 112.64-96.256 119.040-177.664 1.024-11.52 0-23.296-1.536-34.816-7.68-56.576-34.048-102.656-79.104-137.472-36.864-28.416-78.848-42.24-125.184-42.496-10.496 0-21.248 1.28-31.488 2.56-8.704 1.28-17.152 3.584-26.88 5.632 21.76 30.208 25.6 65.792 35.584 99.584 0.512-0.512 0.768-0.512 1.024-0.768 10.752-14.848 26.112-21.76 43.776-23.296 27.392-2.048 51.456 6.656 72.192 24.832 18.688 16.64 30.208 37.376 37.12 61.184 7.168 24.832 10.752 49.92 5.632 75.52-8.704 42.24-34.304 70.656-73.472 87.296-28.928 12.288-59.136 13.056-89.6 7.168-40.96-8.192-73.472-28.16-94.976-63.744-19.712-32.768-24.064-67.584-10.752-103.936 6.144-16.896 17.408-29.696 34.304-36.864 5.632-2.304 9.472-0.512 11.008 5.376 1.536 5.12 2.56 10.496 4.096 15.616 1.536 4.608 0.512 8.448-2.816 12.288-5.376 6.144-9.728 13.312-11.264 21.504-7.168 38.144 3.84 70.656 34.048 95.232 28.16 23.040 61.184 26.88 95.488 17.92 30.464-8.192 48.64-28.416 53.76-59.648 3.328-20.224 0.768-40.448-4.352-60.16-4.096-16.384-10.496-31.488-21.504-44.544-8.96-10.496-19.712-17.664-33.536-19.456-24.064-3.072-42.24 16.384-36.608 39.936 2.816 11.52 6.912 22.784 9.728 34.304 3.072 12.032 6.4 24.064 7.68 36.352 1.792 18.432-8.448 30.976-25.088 32.768-8.704 0.768-16.384-2.048-23.296-7.168-7.168-5.632-11.776-12.8-14.848-20.992-6.656-18.176-5.632-36.352 0.768-54.272 0.768-2.048 1.024-4.608 0.512-6.656-6.656-28.672-13.312-57.344-20.224-86.016-5.632-22.528-10.496-45.056-8.96-68.352 0-0.256-0.256-0.768-0.512-1.024-0.768 0.256-1.536 0.256-2.048 0.768-5.376 2.816-11.008 5.376-16.384 8.448-57.344 34.048-91.392 83.968-101.888 150.016-1.024 5.888-1.536 11.52-2.304 17.408 0 7.424 0 15.104 0 22.528 0.256 1.024 0.768 2.048 0.768 3.072 2.048 31.744 10.752 61.44 27.136 88.832 34.304 56.32 84.224 90.112 149.76 100.352 5.888 0.768 11.52 1.536 17.408 2.304z" />
<glyph unicode="&#xe613;" d="M462.848 327.424h-413.696c-12.8 0-23.040 10.496-23.040 23.040v38.656c0 12.8 10.496 23.040 23.040 23.040h413.696c12.8 0 23.040-10.496 23.040-23.040v-38.656c0.256-12.8-10.24-23.040-23.040-23.040zM462.848 181.504h-413.696c-12.8 0-23.296 10.496-23.296 23.296v38.4c0 12.8 10.496 23.296 23.296 23.296h413.44c12.8 0 23.296-10.496 23.296-23.296v-38.4c0.256-12.8-10.24-23.296-23.040-23.296zM463.104 35.584h-414.208c-12.8 0-23.040 10.24-23.040 23.040v38.912c0 12.8 10.24 23.040 23.040 23.040h413.952c12.8 0 23.040-10.24 23.040-23.040v-38.912c0.256-12.544-10.24-23.040-22.784-23.040z" />
<glyph unicode="&#xe614;" d="M443.392 339.968l-5.376-5.12c4.096-4.352 8.192-8.96 11.776-13.568l5.632 4.608c-3.584 4.864-7.68 9.472-12.032 14.080zM416.256 365.056l-4.608-5.632c4.608-3.84 9.216-7.68 13.568-11.776l4.864 5.376c-4.352 4.096-9.216 8.192-13.824 12.032zM317.44 414.208l-1.792-7.168c5.888-1.536 11.52-3.072 17.408-5.12l2.304 6.912c-5.888 2.048-12.032 3.84-17.92 5.376zM352.512 402.432l-2.816-6.656c5.632-2.304 11.008-4.864 16.384-7.424l3.328 6.656c-5.376 2.56-11.264 5.12-16.896 7.424zM385.792 386.048l-3.584-6.4c5.12-3.072 10.24-6.4 15.104-9.728l4.096 6.144c-5.12 3.328-10.496 6.912-15.616 9.984zM500.48 245.248l-6.912-2.304c2.048-5.632 3.84-11.52 5.376-17.152l7.168 1.792c-1.792 5.888-3.584 11.776-5.632 17.664zM466.944 311.040l-5.888-4.352c3.328-4.864 6.656-9.984 9.984-15.104l6.144 3.84c-3.328 5.376-6.656 10.752-10.24 15.616zM486.144 279.296l-6.4-3.328c2.816-5.376 5.376-10.752 7.68-16.384l6.656 2.816c-2.56 5.888-5.12 11.52-7.936 16.896zM35.584 291.84c3.072 5.12 6.4 10.24 9.984 15.104l-5.888 4.096c-3.584-5.12-6.912-10.24-10.24-15.616l6.144-3.584zM90.368 365.056c-4.864-3.84-9.472-7.936-14.080-12.032l4.864-5.376c4.352 4.096 8.96 7.936 13.568 11.776l-4.352 5.632zM120.832 386.048c-5.376-3.072-10.496-6.4-15.616-9.984l4.096-6.144c4.864 3.328 9.984 6.656 15.104 9.728l-3.584 6.4zM153.856 402.432c-5.632-2.304-11.264-4.864-16.896-7.68l3.328-6.656c5.376 2.56 10.752 5.12 16.384 7.424l-2.816 6.912zM56.576 321.28c3.84 4.608 7.68 9.216 11.776 13.568l-5.376 5.12c-4.096-4.608-8.448-9.216-12.288-13.824l5.888-4.864zM243.968 421.888l0.256-7.424c5.888 0.256 12.032 0.256 17.92 0l0.256 7.424c-6.144 0.256-12.288 0.256-18.432 0zM189.184 414.208c-5.888-1.536-12.032-3.328-17.664-5.12l2.304-6.912c5.632 1.792 11.52 3.584 17.408 5.12l-2.048 6.912zM281.088 420.608l-0.768-7.168c5.888-0.512 12.032-1.536 17.92-2.56l1.28 7.168c-6.144 1.024-12.288 1.792-18.432 2.56zM225.536 420.608c-6.144-0.768-12.288-1.536-18.432-2.56l1.28-7.168c5.888 1.024 11.776 1.792 17.92 2.56l-0.768 7.168zM3.584 306.176l0.512-78.848 54.784 56.832-34.048-5.12-21.248 27.136z" />
<glyph unicode="&#xe615;" d="M455.68 124.672l-5.632 4.608c-3.84-4.608-7.68-9.216-11.776-13.568l5.376-5.12c4.096 4.608 8.192 9.216 12.032 14.080zM430.336 97.536l-4.864 5.376c-4.352-4.096-8.96-7.936-13.568-11.776l4.608-5.632c4.352 3.84 9.216 7.936 13.824 12.032zM335.104 41.728l-2.304 6.912c-5.632-1.792-11.52-3.584-17.408-5.12l1.792-7.168c6.144 1.536 12.288 3.328 17.92 5.376zM369.408 55.808l-3.328 6.656c-5.376-2.56-10.752-5.12-16.384-7.424l2.816-6.656c5.632 2.048 11.52 4.608 16.896 7.424zM401.408 74.496l-4.096 6.144c-4.864-3.328-9.984-6.656-15.104-9.728l3.584-6.4c5.12 3.072 10.496 6.656 15.616 9.984zM506.112 222.976l-7.168 1.792c-1.536-5.888-3.328-11.52-5.376-17.152l6.912-2.304c2.048 5.888 3.84 11.776 5.632 17.664zM476.928 154.88l-6.144 3.84c-3.072-5.12-6.4-10.24-9.984-15.104l5.888-4.352c3.84 5.12 7.168 10.496 10.24 15.616zM493.824 187.904l-6.656 2.816c-2.304-5.632-4.864-11.008-7.68-16.384l6.4-3.328c3.072 5.632 5.632 11.264 7.936 16.896zM29.44 154.88c3.072-5.376 6.656-10.496 10.24-15.616l5.888 4.352c-3.328 4.864-6.656 9.984-9.984 15.104l-6.144-3.84zM94.976 91.392c-4.608 3.84-9.216 7.68-13.568 11.776l-4.864-5.376c4.608-4.096 9.216-8.192 14.080-12.032l4.352 5.632zM124.416 70.912c-5.12 3.072-10.24 6.4-15.104 9.728l-4.096-6.144c5.12-3.584 10.24-6.912 15.616-9.984l3.584 6.4zM156.672 54.784c-5.632 2.304-11.008 4.864-16.384 7.424l-3.328-6.656c5.376-2.816 11.264-5.376 16.896-7.68l2.816 6.912zM50.944 124.672c3.84-4.864 7.936-9.472 12.288-13.824l5.376 5.12c-4.096 4.352-8.192 8.96-11.776 13.568l-5.888-4.864zM262.4 28.672l-0.256 7.424c-5.888-0.256-12.032-0.256-17.92 0l-0.256-7.424c6.144-0.256 12.288-0.256 18.432 0zM190.976 43.52c-5.888 1.536-11.52 3.072-17.408 5.12l-2.304-6.912c5.888-2.048 11.776-3.584 17.664-5.12l2.048 6.912zM299.264 32.512l-1.28 7.168c-5.888-1.024-11.776-1.792-17.92-2.56l0.768-7.168c6.4 0.768 12.544 1.536 18.432 2.56zM226.304 37.12c-5.888 0.512-12.032 1.536-17.92 2.56l-1.28-7.168c6.144-1.024 12.288-2.048 18.432-2.56l0.768 7.168zM24.832 171.52l34.048-5.12-54.528 56.576-0.512-78.848 20.992 27.392z" />
<glyph unicode="&#xe616;" d="M66.304 110.592l5.376 5.12c-4.096 4.352-8.192 8.96-11.776 13.568l-5.632-4.608c3.584-4.864 7.68-9.472 12.032-14.080zM93.44 85.504l4.608 5.632c-4.608 3.84-9.216 7.68-13.568 11.776l-4.864-5.376c4.352-4.096 8.96-8.192 13.824-12.032zM192.256 36.352l1.792 7.168c-5.888 1.536-11.52 3.072-17.408 5.12l-2.304-6.912c5.888-2.048 12.032-3.84 17.92-5.376zM157.184 48.128l2.816 6.656c-5.632 2.304-11.008 4.864-16.384 7.424l-3.328-6.656c5.376-2.56 11.008-5.12 16.896-7.424zM123.904 64.512l3.584 6.4c-5.12 3.072-10.24 6.4-15.104 9.728l-4.096-6.144c5.12-3.328 10.24-6.912 15.616-9.984zM8.96 205.312l6.912 2.304c-2.048 5.632-3.84 11.52-5.376 17.152l-7.168-1.792c2.048-5.888 3.84-11.776 5.632-17.664zM42.752 139.52l5.888 4.352c-3.328 4.864-6.656 9.984-9.984 15.104l-6.144-3.84c3.328-5.376 6.656-10.752 10.24-15.616zM23.552 171.264l6.4 3.328c-2.816 5.376-5.376 10.752-7.68 16.384l-6.656-2.816c2.56-5.888 5.12-11.52 7.936-16.896zM473.856 158.72c-3.072-5.12-6.4-10.24-9.984-15.104l5.888-4.352c3.584 5.12 6.912 10.24 10.24 15.616l-6.144 3.84zM419.328 85.504c4.864 3.84 9.472 7.936 14.080 12.032l-4.864 5.376c-4.352-4.096-8.96-7.936-13.568-11.776l4.352-5.632zM388.864 64.512c5.376 3.072 10.496 6.4 15.616 9.984l-4.096 6.144c-4.864-3.328-9.984-6.656-15.104-9.728l3.584-6.4zM355.84 48.128c5.632 2.304 11.264 4.864 16.896 7.68l-3.328 6.656c-5.376-2.56-10.752-5.12-16.384-7.424l2.816-6.912zM453.12 129.28c-3.84-4.608-7.68-9.216-11.776-13.568l5.376-5.12c4.096 4.608 8.448 9.216 12.288 13.824l-5.888 4.864zM265.728 28.672l-0.256 7.424c-5.888-0.256-12.032-0.256-17.92 0l-0.256-7.424c5.888-0.256 12.288-0.256 18.432 0zM320.512 36.352c5.888 1.536 12.032 3.328 17.664 5.12l-2.304 6.912c-5.632-1.792-11.52-3.584-17.408-5.12l2.048-6.912zM228.608 29.952l0.768 7.168c-5.888 0.512-12.032 1.536-17.92 2.56l-1.28-7.168c6.144-1.024 12.288-1.792 18.432-2.56zM284.16 29.952c6.144 0.768 12.288 1.536 18.432 2.56l-1.28 7.168c-5.888-1.024-11.776-1.792-17.92-2.56l0.768-7.168zM506.112 144.384l-0.512 78.848-54.528-56.576 34.048 5.12 20.992-27.392z" />
<glyph unicode="&#xe617;" d="M54.016 323.328l5.632-4.608c3.84 4.608 7.68 9.216 11.776 13.568l-5.376 5.12c-4.096-4.608-8.192-9.216-12.032-14.080zM79.36 350.464l4.864-5.376c4.352 4.096 8.96 7.936 13.568 11.776l-4.608 5.632c-4.608-3.84-9.216-7.936-13.824-12.032zM174.336 406.272l2.304-6.912c5.632 1.792 11.52 3.584 17.408 5.12l-1.792 7.168c-5.888-1.536-12.032-3.328-17.92-5.376zM140.288 392.192l3.328-6.656c5.376 2.56 10.752 5.12 16.384 7.424l-2.816 6.656c-5.888-2.048-11.52-4.608-16.896-7.424zM108.288 373.504l4.096-6.144c4.864 3.328 9.984 6.656 15.104 9.728l-3.584 6.4c-5.376-3.072-10.496-6.656-15.616-9.984zM3.584 225.024l7.168-1.792c1.536 5.888 3.328 11.52 5.376 17.152l-6.912 2.304c-2.048-5.888-3.84-11.776-5.632-17.664zM32.512 293.12l6.144-3.84c3.072 5.12 6.4 10.24 9.984 15.104l-5.888 4.096c-3.584-4.864-6.912-10.24-10.24-15.36zM15.616 260.096l6.912-2.816c2.304 5.632 4.864 11.008 7.68 16.384l-6.4 3.328c-3.072-5.632-5.632-11.264-8.192-16.896zM480.256 293.12c-3.072 5.376-6.656 10.496-10.24 15.616l-5.888-4.352c3.328-4.864 6.656-9.984 9.984-15.104l6.144 3.84zM414.72 356.608c4.608-3.84 9.216-7.68 13.568-11.776l4.864 5.376c-4.608 4.096-9.216 8.192-14.080 12.032l-4.352-5.632zM385.28 377.088c5.12-3.072 10.24-6.4 15.104-9.728l4.096 6.144c-5.12 3.584-10.24 6.912-15.616 9.984l-3.584-6.4zM353.024 393.216c5.632-2.304 11.008-4.864 16.384-7.424l3.328 6.656c-5.376 2.816-11.264 5.376-16.896 7.68l-2.816-6.912zM458.752 323.328c-3.84 4.864-7.936 9.472-12.288 13.824l-5.376-5.12c4.096-4.352 8.192-8.96 11.776-13.568l5.888 4.864zM247.040 419.328l0.256-7.424c5.888 0.256 12.032 0.256 17.92 0l0.256 7.424c-5.888 0.256-12.288 0.256-18.432 0zM318.72 404.48c5.888-1.536 11.52-3.072 17.408-5.12l2.304 6.912c-5.888 2.048-11.776 3.584-17.664 5.12l-2.048-6.912zM210.432 415.488l1.28-7.168c5.888 1.024 11.776 1.792 17.92 2.56l-0.768 7.168c-6.4-0.768-12.544-1.536-18.432-2.56zM283.392 410.88c5.888-0.512 12.032-1.536 17.92-2.56l1.28 7.168c-6.144 1.024-12.288 2.048-18.432 2.56l-0.768-7.168zM484.864 276.48l-34.048 5.12 54.528-56.576 0.512 78.848-20.992-27.392z" />
<glyph unicode="&#xe618;" d="M416 121.856c0 0-5.376-25.856-41.216-25.856s-35.584 25.856-35.584 25.856c-30.464-16.128-51.456-50.688-51.456-90.88h179.968c-0.256 40.192-21.248 74.752-51.712 90.88zM377.6 123.136c27.136 0 49.152 24.32 49.152 54.272s-22.016 54.272-49.152 54.272-49.152-24.32-49.152-54.272c0-29.952 22.016-54.272 49.152-54.272zM225.792 263.424l-54.272-56.576-54.272 56.576c-43.008-22.528-72.704-70.656-72.704-126.72h253.952c0 56.064-29.952 104.192-72.704 126.72zM171.52 265.216c38.4 0 69.376 34.048 69.376 75.776-0.256 41.984-31.232 76.032-69.376 76.032-38.4 0-69.376-34.048-69.376-75.776 0-41.984 30.976-76.032 69.376-76.032z" />
<glyph unicode="&#xe619;" d="M292.096 445.44c-8.96-15.616-28.928-20.992-44.544-12.032l-178.688-309.76c15.616-8.96 20.736-28.928 11.776-44.544l139.264-80.384c8.96 15.616 28.928 20.992 44.544 12.032l178.688 309.76c-15.616 8.96-20.736 28.928-11.776 44.544v0l-139.264 80.384zM408.32 356.096l-0.256-1.024c-1.536-13.312 2.048-26.88 9.984-37.376l0.768-1.024-163.328-282.624-1.024 0.256c-13.056 1.536-26.88-2.304-37.376-10.24l-1.024-0.768-112.384 65.024 0.256 1.024c1.536 13.312-2.048 26.88-9.984 37.376l-0.768 1.024 163.072 282.624 1.024-0.256c13.056-1.536 26.88 2.304 37.376 10.24l1.024 0.768 112.64-65.024zM400.64 350.464l-105.984 61.184c-11.008-7.936-21.248-13.824-34.56-12.8l-157.44-272.896c7.68-10.752 9.984-18.688 8.704-32l105.984-61.184c10.752 7.936 18.688 10.24 32 8.704 1.024 0.256 159.744 276.992 159.744 276.992-7.68 10.752-9.728 18.432-8.448 32zM217.856 88.064l-44.8 25.856-9.216-16.128-9.216 5.376 24.832 42.752 9.216-5.376-9.216-15.872 44.8-25.856-6.4-10.752zM236.8 120.832l-54.016 31.232 6.4 11.008 54.016-31.232-6.4-11.008zM262.656 163.584c-4.096-7.168-9.984-11.52-17.664-13.312s-15.616-0.256-24.064 4.608c-8.96 5.12-14.592 11.52-16.896 18.944s-1.28 15.104 3.072 22.528c3.84 6.656 8.96 10.752 15.104 12.8 3.84 1.024 8.192 1.024 13.056-0.256l-3.584-12.288c-3.072 1.024-6.144 1.024-8.96-0.256-2.816-1.024-5.12-3.072-6.656-5.888-2.304-4.096-2.816-8.192-1.28-12.288s5.376-8.192 11.776-11.776c6.912-3.84 12.288-5.632 16.64-4.608 4.352 0.768 7.68 3.072 9.984 7.168 1.792 2.816 2.304 5.888 1.536 8.96s-2.56 6.4-6.144 9.472l9.472 8.704c4.864-5.12 7.68-10.24 8.448-15.616s-0.512-11.008-3.84-16.896zM299.776 229.888l-33.792-0.256 3.84-14.080 16.384-9.472-6.4-11.008-54.016 31.488 6.4 11.008 24.064-13.824-11.264 35.84 8.448 14.592 9.216-32.512 45.312 2.304-8.192-14.080zM310.528 248.832l-54.016 31.232 23.040 39.936 9.216-5.376-16.896-29.184 12.032-6.912 15.616 27.136 9.216-5.376-15.616-27.136 14.592-8.448 17.408 30.208 9.216-5.376-23.808-40.704zM346.112 310.528l-44.8 25.856-9.216-16.128-9.216 5.376 24.832 43.008 9.216-5.376-9.216-15.872 44.8-26.112-6.4-10.752z" />
<glyph unicode="&#xe61a;" d="M230.656 177.408h50.688l15.872 165.12h-79.104l12.544-165.12zM232.96 152.064c-4.352-4.352-6.656-10.496-6.656-17.92 0-16.384 13.312-28.672 29.696-28.672s29.696 12.288 29.696 28.672c0 7.168-2.304 13.568-6.656 17.92h-46.080zM256 435.712c-116.736 0-211.712-94.976-211.712-211.712s94.976-211.712 211.712-211.712c116.736 0 211.712 94.976 211.712 211.712s-94.976 211.712-211.712 211.712zM256 54.784c-93.44 0-169.216 76.032-169.216 169.216 0 93.44 76.032 169.216 169.216 169.216 93.44 0 169.216-76.032 169.216-169.216 0-93.44-75.776-169.216-169.216-169.216z" />
<glyph unicode="&#xe61b;" d="M455.168 375.040h-398.336c-6.656 0-12.032-5.376-12.032-12.032v-277.76c0-6.656 5.376-12.032 12.032-12.032h398.592c6.656 0 12.032 5.376 12.032 12.032v277.76c0 6.656-5.632 12.032-12.288 12.032zM104.96 109.312h-24.064v229.376h24.064v-229.376zM431.104 121.344h-205.312v24.064h205.312v-24.064zM431.104 169.728h-205.312v24.064h205.312v-24.064z" />
<glyph unicode="&#xe61c;" d="M390.144 449.28h-36.608v-97.28h36.608v97.28zM158.464 449.28h-36.608v-97.28h36.608v97.28zM402.176 400.64v-60.928h-60.928v60.928h-170.496v-60.928h-60.928v60.928h-60.928v-402.176h414.208v402.176h-60.928zM438.784 23.040h-365.568v292.352h365.568v-292.352zM141.312 135.68l32.256 3.84c1.024-8.192 3.84-14.592 8.448-18.944s9.984-6.656 16.384-6.656c6.912 0 12.8 2.56 17.408 7.936 4.608 5.12 7.168 12.288 7.168 21.248 0 8.448-2.304 15.104-6.656 19.968-4.608 4.864-9.984 7.424-16.64 7.424-4.352 0-9.472-0.768-15.36-2.56l3.584 27.136c8.96-0.256 15.872 1.792 20.736 5.888s7.168 9.728 7.168 16.64c0 5.888-1.792 10.496-5.12 14.080-3.584 3.584-8.192 5.12-13.824 5.12s-10.496-2.048-14.592-5.888c-4.096-4.096-6.4-9.728-7.424-17.408l-30.72 5.12c2.048 10.496 5.376 18.944 9.728 25.344s10.24 11.264 18.176 14.848 16.384 5.376 26.112 5.376c16.384 0 29.696-5.12 39.424-15.616 8.192-8.448 12.288-18.176 12.288-28.928 0-15.36-8.448-27.648-25.088-36.608 9.984-2.048 17.92-6.912 24.064-14.336 5.888-7.424 8.96-16.384 8.96-27.136 0-15.36-5.632-28.416-16.896-39.168s-25.088-16.128-41.728-16.128c-15.872 0-28.928 4.608-39.168 13.568-11.008 9.216-16.896 21.248-18.688 35.84zM363.776 89.344h-33.536v125.952c-12.288-11.52-26.624-19.968-43.264-25.344v30.464c8.704 2.816 18.176 8.192 28.416 16.128s17.152 17.152 20.992 27.904h27.136v-175.104z" />
<glyph unicode="&#xe61d;" d="M416.256 364.032h-318.464c-8.704 0-15.616-7.168-15.616-15.616v-227.328c0-8.704 7.168-15.616 15.616-15.616h90.624v-18.176h-42.24v-22.272h219.904v22.272h-39.168v18.176h89.344c8.704 0 15.616 7.168 15.616 15.616v227.072c0 8.704-6.912 15.872-15.616 15.872zM390.4 158.976c0-5.12-4.096-9.216-9.216-9.216h-251.904c-3.584 0-6.4 2.816-6.4 6.4v158.464c0 2.56 2.048 4.608 4.608 4.608h256.256c3.84 0 6.912-3.072 6.912-6.912v-153.344z" />
<glyph unicode="&#xe61e;" d="M401.408 96c0.512 2.048 0.768 4.352 0.768 6.656v167.68c0 15.36-12.544 27.648-27.648 27.648h-229.888c-15.36 0-27.648-12.544-27.648-27.648v-167.68c0-2.304 0.256-4.352 0.768-6.656h-42.752v-15.872c0-8.704 7.168-15.872 15.872-15.872h337.664c8.704 0 15.872 7.168 15.872 15.872v15.872h-43.008zM142.592 272.384h234.752v-154.368h-234.752v154.368zM282.624 85.248h-53.248v10.752h52.992v-10.752z" />
<glyph unicode="&#xe61f;" d="M344.32 251.904c0 10.752-8.704 19.456-19.456 19.2l-141.056-0.512c-10.752 0-19.456-8.704-19.2-19.456l0.512-166.4c0-10.752 8.704-19.456 19.456-19.2l141.056 0.512c10.752 0 19.456 8.704 19.2 19.456l-0.512 166.4zM272.64 78.080h-35.84v13.312h35.84v-13.312zM318.464 101.376h-129.792v141.824h129.536v-141.824z" />
<glyph unicode="&#xe620;" d="M293.888 222.72h-73.472c-8.448 0-15.36-6.912-15.36-15.36v-126.72c0-8.448 6.912-15.36 15.36-15.36h73.472c8.448 0 15.36 6.912 15.36 15.36v126.464c0 8.704-6.912 15.616-15.36 15.616zM273.664 76.8h-30.208v9.728h30.464v-9.728zM295.936 98.304h-77.824v109.312h78.080v-109.312z" />
<glyph unicode="&#xe621;" d="M256 433.664c-115.712 0-209.408-94.208-209.408-209.92s93.696-209.408 209.408-209.408c115.712 0 209.408 93.696 209.408 209.408s-93.696 209.92-209.408 209.92v0zM349.952 306.432c5.376 0 10.752-2.048 14.848-6.144l18.944-18.944c7.936-7.936 7.936-20.992 0-29.184l-135.68-135.168c-3.072-3.072-6.656-4.864-10.496-5.632-6.4-1.28-13.568 0.768-18.432 5.632l-18.944 18.944c-1.024 1.024-1.792 1.792-2.56 3.072l-58.88 58.624c-7.936 8.192-7.936 20.992 0 29.184l18.944 18.944c8.192 8.192 20.992 8.192 29.184 0l46.848-47.36 101.888 101.888c4.096 4.096 9.216 6.144 14.336 6.144v0z" />
<glyph unicode="&#xe622;" d="M256 434.432c-115.968 0-210.432-94.464-210.432-210.432s94.464-210.432 210.432-210.432c115.968 0 210.432 94.464 210.432 210.432s-94.464 210.432-210.432 210.432zM256 55.552c-92.928 0-168.448 75.52-168.448 168.448s75.52 168.448 168.448 168.448c92.928 0 168.448-75.52 168.448-168.448s-75.52-168.448-168.448-168.448zM271.104 167.936h-44.288c-8.192-6.4-13.056-16.384-13.056-27.392 0-19.456 15.616-35.072 35.072-35.072s35.072 15.616 35.072 35.072c0.256 11.264-4.864 20.992-12.8 27.392zM255.488 341.76c-43.264 0-75.52-33.536-75.52-75.52h49.408c0 20.224 13.056 29.696 26.112 29.696s26.88-9.472 26.88-29.696c0-20.224-14.080-29.44-32.256-29.44h-21.76v-45.824h21.76c48.384 0 81.664 33.28 81.664 75.264 0.256 41.984-33.024 75.52-76.288 75.52z" />
<glyph unicode="&#xe623;" d="M348.16 433.92h-184.576c0 0-26.624 0.512-26.624-29.952l-0.256-360.192c0 0-2.56-29.696 25.344-29.696h187.136c0 0 25.6-0.512 25.6 28.416v361.472c0.256 0 1.024 29.952-26.624 29.952zM229.376 419.328h52.992v-14.336h-52.992v14.336zM209.408 419.328c3.584 0 6.656-3.328 6.656-7.168 0-4.096-3.072-7.168-6.656-7.168s-6.656 3.328-6.656 7.168c0 3.84 3.072 7.168 6.656 7.168zM255.744 43.008c-7.424 0-13.312 6.4-13.312 14.592 0 7.936 5.888 14.592 13.312 14.592s13.312-6.4 13.312-14.592c0-7.936-5.888-14.592-13.312-14.592zM349.184 101.12h-186.624v289.28h186.624v-289.28z" />
<glyph unicode="&#xe624;" d="M445.696 374.528h-379.392c-11.52 0-20.992-9.216-20.992-20.736v-39.424h421.376v39.424c0 11.52-9.216 20.736-20.992 20.736zM45.312 94.208c0-11.52 9.472-20.736 20.992-20.736h379.648c11.52 0 20.992 9.216 20.992 20.736v172.032h-421.632v-172.032zM370.432 230.144h60.16v-24.064h-60.16v24.064zM274.176 230.144h60.16v-24.064h-60.16v24.064zM177.664 230.144h60.16v-24.064h-60.16v24.064zM81.408 230.144h60.16v-24.064h-60.16v24.064z" />
<glyph unicode="&#xe625;" d="M138.752 145.152h328.448v39.424h-328.448v-39.424zM138.752 26.88h328.448v39.424h-328.448v-39.424zM138.752 263.424h328.448v39.424h-328.448v-39.424zM138.752 421.12v-39.424h328.448v39.424h-328.448zM46.848 381.696h39.424v39.424h-39.424v-39.424zM46.848 263.424h39.424v39.424h-39.424v-39.424zM46.848 145.152h39.424v39.424h-39.424v-39.424zM46.848 26.88h39.424v39.424h-39.424v-39.424z" />
<glyph unicode="&#xe626;" d="M447.744 229.632c0 104.192-84.992 188.672-189.696 188.672s-189.696-84.736-189.696-188.672c0-49.408 18.944-96 53.504-131.328l49.92 48.128c-21.76 22.528-34.048 51.968-34.048 83.2 0 66.048 54.016 119.552 120.32 119.552s120.32-53.76 120.32-119.552c0-62.208-47.872-113.408-108.8-119.040v48.896l-84.48-83.968 84.48-83.968v49.92c99.072 5.632 178.176 88.064 178.176 188.16z" />
<glyph unicode="&#xe627;" d="M257.792 14.336l-209.92 210.432v93.184l115.456 115.712 94.464-94.72 94.464 94.72 115.456-115.712v-93.184l-209.92-210.432zM90.112 242.176l167.936-168.448 167.936 168.448v58.368l-73.472 73.728-94.464-94.72-94.464 94.72-73.472-73.728v-58.368z" />
<glyph unicode="&#xe628;" d="M421.376 236.8h-44.032v110.080h-132.096v44.032h176.128v-154.112zM333.312 148.736h-44.032v110.080h-110.080v44.032h154.112v-154.112zM245.248 60.672h-154.112v154.112h154.112v-154.112zM465.408 434.944h-264.192v-88.064h-66.048v-88.064h-88.064v-242.176h242.176v88.064h88.064v88.064h88.064v242.176z" />
<glyph unicode="&#xe629;" d="M237.312 169.216h35.072v178.432h66.56l-84.224 83.968-83.968-83.968h66.56v-178.432zM377.088 344.064v-35.072h52.48v-262.144h-349.696v262.4h52.48v34.816h-87.296v-332.288h419.584v332.288h-87.552z" />
<glyph unicode="&#xe62a;" d="M256 433.152c-116.48 0-210.944-94.72-210.944-210.944 0-116.48 94.72-210.944 210.944-210.944 116.48 0 210.944 94.72 210.944 210.944s-94.464 210.944-210.944 210.944zM256 53.248c-93.184 0-168.704 75.776-168.704 168.704 0 93.184 75.776 168.704 168.704 168.704 93.184 0 168.704-75.776 168.704-168.704s-75.52-168.704-168.704-168.704zM325.888 264.96c0 34.56-28.16 62.72-62.72 62.72h-78.848v-210.944h46.336v84.48h1.024l65.28-84.48h56.832l-68.608 89.344c24.32 9.472 40.704 32.512 40.704 58.88zM257.792 243.2h-27.136v42.24h27.136c12.8 0 22.016-9.728 22.016-21.248s-9.216-20.992-22.016-20.992z" />
<glyph unicode="&#xe62b;" d="M256 434.432c-115.968 0-210.432-94.464-210.432-210.432 0-58.112 23.552-110.592 61.696-148.736l-61.696-61.696h59.392l35.072 35.072c33.28-22.016 73.216-35.072 115.968-35.072s82.688 12.8 115.968 35.072l35.072-35.072h59.648l-61.696 61.696c38.144 38.144 61.696 90.624 61.696 148.736-0.256 115.968-94.72 210.432-210.688 210.432zM256 55.552c-92.928 0-168.448 75.52-168.448 168.448s75.52 168.448 168.448 168.448c92.928 0 168.448-75.52 168.448-168.448s-75.52-168.448-168.448-168.448zM45.568 434.432v-84.224l84.224 84.224h-84.224zM382.208 434.432l84.224-84.224v84.224h-84.224zM276.992 350.208h-41.984v-134.912l90.368-90.368 29.696 29.696-78.080 78.080v117.504z" />
<glyph unicode="&#xe62c;" d="M505.856 292.352c0 11.776-7.424 18.944-19.2 18.944-80.384 0-150.784 0-231.168 0s-149.76 0-230.144 0c-11.776 0-19.2-7.168-19.2-18.944 0-45.568 0-91.136 0-136.704 0-11.776 7.424-18.944 19.2-18.944 161.024 0 300.288 0 461.312 0 11.776 0 19.2 7.168 19.2 18.944 0 45.568 0 91.136 0 136.704zM466.432 272.128c6.144 0.512 10.24-3.072 10.496-9.472 0-1.024 0-2.048 0-3.584-5.376 0-10.24 0-15.104 0 0-5.888 3.072-7.168 13.056-5.888 0.256-1.024 0.512-2.048 0.768-2.816-7.68-4.096-16.64-1.024-18.688 6.144-1.792 7.68 2.56 15.36 9.472 15.616zM371.712 271.872c1.28 0 2.56 0 3.84 0 0.256-0.768 0.256-1.792 0.256-2.048 2.304 0.768 4.608 2.304 7.168 2.56 3.84 0.512 7.424-2.048 7.936-5.888 0.512-5.632 0-11.264 0-17.152-1.28 0-2.816 0-4.608 0 0 4.608 0 8.96 0 13.312-0.256 4.352-2.56 6.4-6.144 5.376-2.816-0.768-3.584-3.072-3.584-5.888 0-3.328 0-6.656 0-9.984 0-1.024 0-1.792-0.256-3.072-1.536 0-3.072 0-4.608 0 0 7.68 0 15.104 0 22.784zM314.624 272.384c6.144-0.256 9.728-5.632 8.448-13.056-4.864 0-9.728 0-14.592 0 0-5.888 3.584-7.424 12.544-5.888 1.536-3.072 1.536-3.584-1.536-4.096-2.048-0.256-4.096-0.512-6.144-0.512-6.4 0.256-10.496 5.632-10.24 12.288 0.512 7.168 5.12 11.52 11.52 11.264zM237.824 260.608c2.048 1.28 4.608 2.048 6.912 2.816 1.28 0.512 2.56 0.512 4.096 0.768-0.256 4.864-2.56 5.632-10.24 3.328-1.536 2.304-1.024 3.584 1.536 4.096 2.56 0.256 5.12 0.768 7.68 0.512 3.584-0.512 6.144-3.584 6.144-7.68 0-4.864 0-9.728 0-14.848-1.792-0.512-3.84-1.28-4.608 1.28-2.304-0.768-4.608-1.536-6.912-1.792-3.072-0.256-5.12 1.28-6.4 4.096-1.28 2.304-0.768 5.632 1.792 7.424zM208.128 278.784c0.256 1.28 1.536 2.304 2.304 3.328 0.512 0 1.024 0 1.28 0 0.768-1.024 2.304-2.304 2.304-3.328s-1.536-2.56-2.816-3.072c-1.792-0.256-3.328 1.024-3.072 3.072zM213.76 249.344c-1.792 0-3.328 0-4.864 0 0 7.424 0 14.848 0 22.528 4.864 0.768 4.864 0.768 4.864-3.84 0-6.4 0-12.544 0-18.688zM161.536 268.544c1.536-4.608 2.816-8.96 4.352-14.080 1.536 4.864 2.816 9.216 4.352 13.568 1.28 4.352 1.28 4.352 6.4 3.84-0.768-2.048-1.536-3.84-2.048-5.632-1.792-5.12-3.84-10.24-5.888-15.36-0.256-0.768-1.792-1.536-2.816-1.536s-2.816 0.512-3.328 1.536c-2.816 6.912-5.12 13.824-7.68 20.736 4.608 1.024 5.376 0.768 6.656-3.072zM135.168 279.040c0.512 1.536 1.536 1.792 2.816 1.792 1.536-0.256 3.584 1.024 4.352-1.536 3.328-9.984 6.4-19.712 9.472-29.696-4.864-1.28-5.12-1.024-6.4 3.328-1.792 5.376-1.792 5.376-7.424 5.376-4.608 0-4.608 0-5.888-4.352 0-0.256-0.256-0.768-0.256-1.024-1.28-4.352-1.28-4.352-6.4-3.584 3.584 9.984 6.656 19.968 9.728 29.696zM94.464 176.896c0-6.912-4.096-11.008-11.008-11.008-13.824 0-27.648 0-41.472 0-6.912 0-11.008 4.352-11.008 11.264 0 31.232 0 62.72 0 93.952 0 7.168 4.096 11.264 11.008 11.264 13.824 0 27.904 0 41.728 0 6.656 0 10.752-4.096 10.752-10.752 0-15.872 0-31.488 0-47.36s0-31.744 0-47.36zM168.704 173.568c-0.768 0-2.048 1.024-2.304 1.792-1.536 4.608-3.072 9.472-4.608 14.080-0.512 1.536-1.28 2.048-2.816 2.048-5.888 0-11.52 0-17.664 0-1.28-4.352-2.816-8.96-4.096-13.568-1.536-4.608-1.536-4.608-6.144-4.608-1.536 0-3.328 0-5.376 0 0.512 1.792 1.024 3.072 1.28 4.608 5.888 18.176 11.776 36.352 17.408 54.528 0.512 1.792 1.28 2.56 3.328 2.56 3.072-0.256 7.168 1.024 9.216-0.512s2.304-5.632 3.328-8.448c5.376-16.64 10.752-33.28 16.128-49.92 0.256-0.768 0.512-1.536 0.768-2.816-3.072 0.256-5.888 0-8.448 0.256zM181.504 253.184c-1.024 3.072-0.256 6.4 2.56 7.936 2.304 1.28 5.12 1.792 7.68 2.56 0.768 0.256 1.792 0.256 2.56 0.256-0.512 4.864-2.304 5.632-10.752 3.584-0.256 0.768-0.512 1.792-1.024 2.816 3.84 2.304 7.936 2.56 12.032 1.28 2.56-0.768 4.096-3.072 4.352-5.888 0.256-5.376 0-11.008 0-16.384-1.536 0-3.84-1.28-4.352 1.536-2.304-0.768-4.352-1.792-6.656-2.048-3.072-0.512-5.376 1.28-6.4 4.352zM221.184 180.48c-4.864-7.168-14.592-9.984-22.016-6.656-2.048 0.768-3.584 2.56-5.632 3.84 0-7.168 0-14.592 0-22.016-3.328 0-6.4 0-9.984 0 0 20.736 0 41.216 0 62.208 0.512 0 1.024 0 1.536 0.256 6.656 0.256 6.656 0.256 7.424-6.4 0.256 0 0.512 0 0.768 0.256 4.352 5.888 10.496 7.936 17.664 6.656 7.424-1.28 12.032-6.4 13.824-13.568 2.048-8.704 1.536-17.152-3.584-24.576zM227.84 249.344c-1.536 0-3.072 0-4.864 0 0 11.008 0 21.76 0 33.024 1.792 0 3.072 0 4.864 0 0-11.264 0-22.016 0-33.024zM272.384 184.576c-4.864-12.288-20.992-16.384-30.208-6.4 0-7.68 0-14.848 0-22.272-3.328 0-6.656 0-9.984 0 0 20.736 0 41.472 0 62.208 2.816 0 5.376 0 8.192 0 0.256-2.048 0.512-4.096 0.512-5.632 3.072 2.048 6.144 4.608 9.728 5.888 9.216 2.816 17.92-1.536 21.504-10.24 3.328-8.192 3.072-15.872 0.256-23.552zM283.904 256c-2.048-7.68-9.728-9.728-16.384-4.096-0.256-1.024-0.256-1.792-0.512-2.56-1.28 0-2.816 0-4.096 0 0 11.008 0 21.76 0 32.768 1.792 0 3.072 0 4.864 0 0-4.096 0-8.448 0-12.544 1.792 1.024 3.328 2.048 5.12 2.56 5.12 1.28 9.728-1.28 10.752-6.4 0.768-3.072 1.024-6.656 0.256-9.728zM291.584 282.112c1.792 0 3.072 0 4.864 0 0-11.008 0-22.016 0-33.024-1.792 0-3.072 0-4.864 0 0 11.264 0 22.016 0 33.024zM326.4 179.968c-1.792-2.048-4.096-3.84-6.4-4.864-8.448-3.584-17.152-3.072-25.6 0.256-2.048 0.768-2.304 1.792-1.792 3.84 0.768 1.792 1.024 3.584 1.792 5.632 5.376-2.816 10.752-4.096 16.64-3.584 4.864 0.512 8.192 3.072 8.96 6.656 1.024 4.352-0.768 8.192-5.12 10.752-2.304 1.28-5.12 2.048-7.424 3.328-3.328 1.792-6.656 3.328-9.472 5.888-7.168 6.656-6.656 17.664 1.024 23.552 6.656 5.376 20.992 6.144 28.672 1.28-0.768-2.304-1.536-4.864-2.048-6.656-4.864 0.512-9.472 1.536-14.080 1.536-4.352 0-7.68-2.56-8.448-5.888-1.024-3.84 0.768-7.168 4.864-9.472 4.352-2.304 8.96-4.096 13.056-6.4 9.984-5.888 12.288-17.664 5.376-25.856zM359.168 210.688c-3.328 0-6.656 0-10.496 0 0-1.28-0.256-2.56-0.256-3.584 0-5.632 0-11.264 0-16.896 0-8.192 1.792-9.728 10.24-8.96 0-2.56 0-4.864 0-7.936-3.84 0-7.68-0.512-11.264 0-4.608 0.768-7.68 4.352-7.936 8.96-0.512 5.888-0.512 11.776-0.768 17.92 0 3.328 0 6.912 0 10.496-2.048 0-4.096 0-6.144 0 0 2.56 0 4.864 0 7.424 1.792 0 3.84 0.256 5.888 0.256 0 0.512 0.256 1.024 0.256 1.536 0.256 6.656 0.256 6.656 6.4 8.448 1.024 0.256 1.792 0.512 3.328 0.768 0-1.792 0-3.584 0-5.376s0-3.584 0-5.632c3.584 0 7.168 0 10.752 0 0-2.816 0-4.864 0-7.424zM353.536 248.576c-6.656 0-11.008 4.864-11.008 11.776s4.608 11.776 11.264 11.776c6.656 0 11.008-4.608 11.008-11.776s-4.352-11.776-11.264-11.776zM405.504 192.512c-2.048-16.896-16.128-22.528-28.672-18.944-8.704 2.56-14.336 11.008-14.336 21.76 0 11.776 6.4 20.736 16.128 22.784 17.92 3.84 28.928-8.96 26.88-25.6zM413.44 272.128c0 1.28 0.256 2.56 0.256 3.84 0.512 0.256 1.024 0.512 1.536 0.768 1.024 0.256 1.792 0.512 3.072 0.768 0-1.792 0.256-3.328 0.256-5.376 1.792 0 3.328-0.256 5.376-0.256 0-1.536 0-2.56 0-3.84-1.792 0-3.328 0-5.12 0 0-4.608-0.256-8.704 0.256-13.056 0.256-1.28 2.56-2.048 4.096-2.816 1.28-3.072 1.024-3.584-2.304-3.584-4.608-0.256-6.912 2.048-7.168 7.168 0 2.048 0 4.096 0 6.144s0 3.84 0 5.888c-1.024 0-2.048 0.256-3.072 0.256-0.768 3.584-0.768 3.584 2.816 4.096zM435.2 209.664c-0.256 0-0.512-0.256-0.768-0.256-8.704 1.024-12.544-5.12-12.544-12.544-0.256-7.68 0-15.36 0-23.296-3.328 0-6.4 0-9.728 0 0 14.592 0 29.44 0 44.288 2.048 0 4.608 0 6.656 0 0.512 0 1.536-1.024 1.536-1.792 0.256-2.048 0-3.84 0.256-6.144 3.072 5.632 7.168 9.472 14.336 8.448 0.256-2.816 0.256-5.632 0.256-8.704zM436.48 263.424c0-4.096 0-8.192 0-12.288 0-0.512 0-1.024-0.256-1.792-1.536 0-3.072 0-4.864 0 0 11.008 0 21.76 0 32.768 1.536 0 3.072 0 4.864 0 0-4.096 0-8.192 0-12.544 1.792 1.024 3.328 2.048 5.12 2.56 5.12 1.28 9.472-2.048 9.728-7.68 0.256-4.096 0-8.192 0-12.288 0-0.768 0-1.792 0-2.816-1.792 0-3.328 0-5.12 0 0 3.584 0 6.912 0 10.496 0 1.28 0 2.56 0 3.84-0.256 3.072-1.792 4.608-4.608 4.608-2.816-0.256-4.864-2.048-4.864-4.864zM475.136 193.28c-8.96 0-17.664 0-26.88 0-0.256-6.656 3.84-12.288 10.24-12.8 5.12-0.512 10.24 0.256 15.616 0.512 0.256-1.536 0.768-3.584 1.28-6.144-8.704-2.816-17.408-4.096-25.856-0.256-5.888 2.56-9.216 7.424-10.24 13.824-1.536 7.936-0.768 15.616 4.352 22.272 4.864 6.4 12.8 9.216 20.992 7.168 7.168-1.792 11.776-7.424 13.056-15.616 0.256-2.304 0.256-4.352 0.512-6.656 0-1.536-1.024-2.304-3.072-2.304zM36.352 262.912c17.92 0 35.328 0 52.992 0 0-25.856 0-51.456 0-77.568-17.664 0-35.328 0-52.992 0 0 25.856 0 51.712 0 77.568zM62.72 170.496c-3.584 0-6.144 2.56-6.144 5.888 0 3.584 2.56 6.144 6.144 6.144 3.328 0 5.888-2.816 6.144-5.888 0-3.328-2.56-6.144-6.144-6.144zM56.576 270.848c0.768 0.512 1.28 1.28 2.048 1.28 3.584-0.256 7.168 1.024 10.496-0.768 0-0.256 0-0.768 0-1.024-3.84 0-7.936 0-11.776 0-0.512 0-0.768 0.256-0.768 0.512zM241.664 195.072c0.256 2.56 0.256 5.12 0.768 7.424 1.28 4.864 5.12 7.936 9.728 8.448 4.352 0.256 8.448-2.304 10.496-6.656 2.56-5.888 2.304-12.032-0.256-17.92-2.304-4.864-6.912-6.912-12.544-5.888-4.352 1.024-7.68 5.376-7.936 10.24 0 1.28 0 2.816 0 4.096 0 0.256 0 0.256-0.256 0.256zM193.024 195.072c0.256 2.56 0.256 5.12 0.768 7.424 1.024 4.608 5.12 7.936 9.472 8.192 4.352 0.512 8.704-2.304 10.496-6.912 2.304-5.888 2.304-11.776-0.256-17.408-2.304-5.12-6.912-7.424-12.544-6.144-4.352 1.024-7.68 5.376-7.936 10.496 0 1.28 0 2.816 0 4.096 0.256 0.256 0 0.256 0 0.256zM159.232 199.424c-5.376 0-10.752 0-16.128 0 2.56 8.96 5.12 17.664 7.936 26.624 2.816-8.96 5.376-17.664 8.192-26.624zM396.288 195.584c-1.28-3.84-2.048-7.68-4.096-10.752-4.096-6.656-13.056-6.656-17.152 0.256-4.096 7.168-4.096 14.592 0 21.76 4.096 6.656 13.312 6.656 17.152 0 2.304-3.584 2.816-7.424 4.096-11.264zM448.256 200.704c0.512 6.656 5.12 11.52 10.752 11.264s9.216-4.352 9.472-11.264c-6.656 0-13.312 0-20.224 0zM267.776 260.352c0.256 1.28 0.256 2.56 0.512 3.84 0.768 2.56 2.56 4.096 5.12 4.352 2.816 0 4.608-1.28 5.12-3.84s0.512-5.12 0-7.68c-0.512-3.072-3.072-4.352-6.144-4.096-2.56 0.256-4.352 2.56-4.608 5.376 0 0.512 0 1.28 0 2.048 0 0 0 0 0 0zM138.752 275.968c1.536-4.864 2.816-9.216 4.096-13.568-2.816 0-5.376 0-8.192 0 1.28 4.352 2.56 8.704 4.096 13.568zM359.424 260.608c0-4.864-2.304-8.192-5.888-8.192s-6.144 3.328-5.888 8.192c0 4.608 2.56 7.936 5.888 7.936 3.584 0 5.888-3.072 5.888-7.936zM194.048 260.864c0.512-5.376 0-7.168-2.816-8.192-2.048-0.768-3.84-0.256-4.608 1.536s-0.512 3.84 1.536 4.864c1.536 0.768 3.84 1.024 5.888 1.792zM308.48 263.168c0.256 3.584 2.304 5.888 5.376 5.632 2.816 0 4.352-1.792 4.608-5.632-3.328 0-6.4 0-9.984 0zM472.064 262.912c-3.584 0-6.912 0-9.984 0 0.512 4.096 2.304 5.888 5.632 5.888 2.816-0.256 4.352-2.048 4.352-5.888zM248.832 260.864c0.512-5.12-0.256-6.912-3.072-8.192-2.048-0.768-3.84-0.768-4.864 1.28s-0.512 4.096 1.792 5.12c1.792 1.024 3.84 1.28 6.144 1.792z" />
<glyph unicode="&#xe62d;" d="M506.624 290.816c0 4.864-1.536 9.472-4.608 13.312-4.352 5.632-10.24 7.168-17.408 7.168-153.344 0-306.688 0-460.032 0-9.984 0-19.2-8.96-19.2-19.2 0.256-45.568 0-91.136 0-136.448 0-1.536 0.256-2.816 0.512-4.352 1.792-7.68 9.216-14.336 19.456-14.336 76.8 0 153.344 0 230.144 0 76.544 0 152.832 0 229.376 0 1.792 0 3.584-0.256 5.376 0.256 11.008 2.816 16.128 9.728 16.384 20.224 0 44.288 0 88.832 0 133.376zM47.36 265.216c9.984-5.632 20.224-11.264 30.208-16.896s20.224-11.264 30.208-16.896c-4.608-4.864-9.216-9.472-14.080-14.080-15.36 15.872-30.976 31.744-46.592 47.616 0 0 0.256 0.256 0.256 0.256zM39.936 172.544c0 28.928 0 57.856 0 86.784 0 1.792 1.024 3.584 1.792 5.888 16.896-17.152 33.28-33.792 49.408-50.176-15.872-15.872-31.744-31.744-48.128-48.128-2.048 1.024-3.072 3.072-3.072 5.632zM51.968 169.216c13.824 14.080 27.904 28.416 41.216 42.24 4.864-4.096 8.96-7.936 13.824-12.032-18.944-10.496-37.12-20.48-55.040-30.208zM130.304 212.736c-1.28-1.024-2.56-2.048-4.096-2.816-5.376-3.072-10.752-5.888-15.872-8.704-4.608 4.608-8.96 8.704-13.568 13.056 4.864 4.864 9.472 9.472 14.336 14.336 0.256 0.256 1.536 0.256 1.792 0 5.632-3.072 11.008-5.888 16.64-9.216 3.072-1.792 3.328-4.352 0.768-6.656zM268.8 283.136c2.304 0.768 4.096 0.256 5.376-2.304s2.816-5.12 4.352-7.68c0.256 0 0.512 0 0.768 0.256 0 3.328 0 6.4 0 9.728 4.096 1.024 4.096 0.768 4.096-2.816 0-4.864 0-9.472 0-14.336-2.816-0.768-4.352-0.512-5.632 2.048-1.28 2.816-3.072 5.376-5.12 7.68 0-2.304 0-4.608 0-6.912 0-3.584 0-3.584-3.84-3.072 0 5.632 0 11.264 0 17.408zM248.576 276.992c0.512 4.352 3.84 6.912 7.936 6.656s6.912-3.328 7.168-7.424c0-0.512 0-1.28 0-1.792 0.512-5.12-2.816-8.96-7.168-9.216-1.536 0-2.816 0.256-4.352 1.024s-2.816 2.56-3.328 4.096c-0.512 2.048-0.512 4.352-0.256 6.656zM214.272 274.432c0 2.304 0 4.608 0 6.912 0 1.792 0.768 2.048 2.304 2.048s2.304-0.256 2.304-2.048c0-4.608 0-9.216 0-14.080 0-1.536-0.768-2.048-2.304-2.048s-2.304 0.256-2.304 2.048c0 2.304 0 4.864 0 7.168zM172.032 281.088c0 1.536 0.512 2.304 2.048 2.304 2.56 0 4.864 0 7.424 0 0.768 0 1.28-1.024 2.048-1.536-0.512-0.512-1.28-1.28-2.048-1.536-1.024-0.256-2.048 0-3.072 0-1.28 0-2.304 0-2.304-1.792 0-2.048 1.024-2.304 2.56-2.048 1.024 0 2.048 0 3.328 0 0.768-2.048 0.512-3.328-2.048-3.072-1.28 0-2.304 0-3.84 0 0-1.024-0.256-2.048 0-2.816s1.024-1.536 1.536-1.536c1.28-0.256 2.56 0.256 3.84 0 0.768-0.256 1.28-1.024 1.792-1.792-0.512-0.512-1.28-1.28-1.792-1.536-2.56-0.256-5.376 0-7.936 0-1.536 0-1.792 0.512-1.792 2.048 0.512 4.096 0.512 8.704 0.256 13.312zM154.112 280.32c1.792 3.584 7.168 4.352 10.24 2.048 1.28-0.768 1.792-2.304 2.56-3.584-0.256-0.256-0.512-0.512-0.768-0.768-1.536 0-3.072-1.024-4.096 1.28-0.256 0.512-2.048 1.024-2.56 0.768-1.024-0.512-2.304-1.536-2.56-2.56-0.256-2.048-0.512-4.352 0-6.656 0.256-1.792 1.792-3.328 3.84-2.816 0.768 0.256 1.536 1.28 1.792 2.048 0.256 1.024-0.256 1.792-1.792 1.792-0.512 0-1.024 1.024-1.536 1.536 0.512 0.512 1.024 1.024 1.536 1.28 5.632 0.512 6.912-0.512 5.888-6.144-0.256-1.28-2.304-3.072-3.84-3.328-6.144-1.536-10.752 1.536-10.24 7.936 0.512 2.56 0.512 5.12 1.536 7.168zM196.096 199.424c0-2.304-0.768-3.072-2.816-3.584-8.192-1.792-16.128-3.584-24.576-1.792-9.472 2.048-15.36 11.008-16.64 18.432-2.56 15.104 8.448 28.16 24.576 28.416 6.656 0 12.8-0.768 18.432-4.608 0.256-0.256 0.512-0.512 1.28-1.024-2.304-2.048-4.608-3.84-6.912-5.888-0.256 0.256-0.256 0.512-0.512 0.512 0 1.024 0.768 2.816 0.256 3.072-1.792 1.536-3.84 3.328-6.4 4.352-11.776 4.352-23.808-4.096-24.064-16.64-0.256-10.24 4.096-17.92 13.056-22.784 4.864-2.56 10.24-2.56 15.616-1.024 0.768 0.256 1.536 1.536 1.792 2.304 0.256 2.816 0 5.632 0 8.704-3.328-0.256-6.144-0.512-9.216-0.768 3.072 3.072 11.264 4.352 18.176 2.816-3.584-2.816-1.792-6.912-2.048-10.496zM199.424 280.064c-3.072 0.512-3.584-1.024-3.328-3.584s0-5.376 0-7.936c0-3.584 0-3.584-4.096-2.816 0 3.84 0 7.68 0 11.52 0 2.048-0.512 3.072-2.816 2.816-0.512 0-1.28 1.024-2.048 1.536 0.768 0.512 1.28 1.536 2.048 1.536 3.328 0.256 6.656 0.256 9.984 0 0.512 0 1.536-1.024 1.536-1.536 0.256-0.512-0.768-1.536-1.28-1.536zM217.344 193.28c-10.752-0.512-16.896 8.704-16.896 15.872 0 10.752 7.168 17.664 18.432 17.664 9.216 0 16.384-7.168 16.128-16.896 0.256-9.216-7.68-16.64-17.664-16.64zM233.984 280.064c-2.56 0.256-3.072-0.768-2.816-3.072 0.256-3.072 0-6.144 0-9.216 0-1.536 0-2.56-2.048-2.56s-2.048 1.024-2.048 2.56c0 3.328 0 6.656 0 9.984 0 1.792-0.512 2.56-2.304 2.304-1.28-0.256-2.304 0-2.304 1.792s1.28 1.536 2.304 1.536c1.536 0 3.072 0 4.608 0 0 0 0 0 0 0 1.536 0 3.072 0.256 4.608 0 0.768 0 1.28-1.024 2.048-1.536-0.768-0.768-1.536-1.792-2.048-1.792zM253.696 193.28c-9.472 0.256-16.896 7.424-16.64 17.152 0 9.216 8.192 17.152 18.432 16.64 9.472 0.256 16.384-6.912 16.384-16.64 0-9.472-6.912-17.152-18.176-17.152zM299.264 221.44c3.584-3.84 3.584-12.288-1.536-16.384-4.096-3.328-4.096-5.12 0.256-8.448 3.328-2.56 6.144-5.12 6.4-9.728 0.256-5.632-3.584-11.008-9.728-13.056-5.12-1.536-10.24-1.792-15.36-0.256-4.352 1.28-7.168 4.352-7.68 7.936-0.512 4.864 1.792 8.192 5.888 9.984 3.072 1.28 6.656 2.048 9.984 2.816 0.512 0.256 1.28 0.256 1.792 0.256-0.512 2.304-1.024 4.608-1.536 6.912 0 0-0.256 0.256-0.512 0.256-6.912 0.256-10.752 2.816-12.032 8.704-1.28 5.376 1.792 11.264 7.424 13.568 2.304 1.024 4.864 1.536 7.424 1.536 5.12 0.256 9.984 0 15.104 0 0-0.256 0.256-0.512 0.256-0.768-2.048-0.768-4.352-1.792-6.4-2.56-0.256 0.256 0-0.256 0.256-0.768zM307.456 195.072c2.56 3.072 1.792 6.656 1.792 9.728 0 10.752 0 21.76 0 32.512 0 2.56-0.512 3.84-3.328 3.328-0.256 0-0.512 0-1.024 0.256 2.816 2.56 8.704 3.584 14.080 2.048-2.56-1.024-2.816-3.072-2.816-5.12 0-12.8 0-25.856 0-38.656 0-2.048 0.768-2.56 2.56-2.56 0.768 0 1.28 0.256 2.048-0.256-3.84-2.816-8.704-1.024-13.312-1.28zM341.248 193.536c-7.424-1.536-13.568 1.024-17.152 6.912-4.096 6.656-4.096 15.36 0.512 20.48 5.376 6.144 14.336 8.192 20.736 3.072 0.512-0.512 1.28-1.024 1.536-1.536 2.816-3.584 2.56-4.608-1.792-6.144-3.328-1.28-6.656-2.816-10.24-4.096-2.048-0.768-4.352-1.024-6.912-1.792 0.512-4.864 3.328-8.704 7.424-11.52 4.608-2.816 9.216-2.56 13.824 0.512-0.768-2.56-4.352-5.12-7.936-5.888zM394.496 201.984c-3.072-8.96-14.848-11.52-22.272-5.632-0.512 0.512-1.024 0.768-2.048 1.536 0-5.12 0-9.472 0-14.080 0-1.792-0.512-2.304-2.304-2.304-1.536 0-2.048 0.768-2.048 2.048 0 13.824 0 27.392 0 41.216 0 1.024 0 2.048 1.536 2.048s2.048-0.512 2.048-1.792c0-0.768 0.256-1.536 0.256-2.048 2.816 1.28 5.12 3.072 7.936 3.84 9.728 2.048 16.128-2.304 17.664-12.288 0.512-4.096 0.512-8.704-0.768-12.544zM403.712 196.864c0-1.536 0-2.304-2.048-2.304-1.792 0-2.304 0.768-2.304 2.304 0 13.312 0 26.88 0 40.192 0 1.536 0.256 2.304 2.048 2.304s2.048-0.768 2.048-2.304c0-6.656 0-13.568 0-20.224 0.256-6.912 0.256-13.312 0.256-19.968zM431.616 198.656c-0.768-0.768-1.28-1.536-2.048-2.048-4.352-3.584-9.216-4.096-14.336-2.56-3.584 1.024-5.632 3.84-6.144 7.68-0.512 3.584 1.024 6.656 4.096 8.448 2.816 1.28 5.888 2.048 8.96 2.56 2.816 0.512 5.632 0 8.448 0.256 0.768 0 1.792 1.024 1.792 1.792 0.512 4.864-1.28 8.448-5.376 9.216-4.864 1.024-9.984 0.512-11.776-4.608-0.768-1.792-2.048-1.536-3.072-1.024-0.512 0.256-0.768 1.792-0.512 2.56 1.792 4.352 5.376 5.888 9.728 6.656 6.144 1.024 12.032-1.28 14.080-5.632 0.768-1.28 1.024-3.072 1.024-4.608 0.256-6.144 0-12.032 0.256-18.176 0-1.536 0.256-3.072 0.512-4.864-4.096-0.768-4.096-0.768-5.632 4.352zM467.2 217.088c-4.352-10.24-8.704-20.224-13.056-30.208-2.304-4.864-6.144-6.656-11.264-5.632-0.512 0-1.536 1.024-1.28 1.28 0.512 0.768 1.024 2.048 1.792 2.048 5.12 0.512 9.472 4.608 9.984 9.984 0 0.768-0.256 1.536-0.768 2.304-4.096 9.216-8.192 18.432-12.288 27.648-0.256 0.768-0.512 1.28-1.024 2.304 4.096 1.024 4.352 1.024 5.888-2.56 3.328-7.936 6.656-15.872 10.24-24.064 0.512 1.28 1.024 2.304 1.536 3.328 2.816 6.912 5.632 13.824 8.448 20.736 1.28 3.328 1.792 3.584 5.888 2.56-1.28-3.584-2.56-6.656-4.096-9.728zM288.768 175.872c-1.792 0.512-4.608 1.024-6.912 2.304-2.816 1.536-4.864 3.84-4.096 7.424 0.512 3.584 3.072 5.12 6.4 6.144 1.024 0.256 2.304 0.512 3.584 0.768 4.096 0.768 9.728-2.304 11.52-6.144s-0.512-8.448-4.864-9.472c-1.792-0.512-3.328-0.768-5.632-1.024zM281.088 215.808c0 4.352 1.792 6.912 4.864 7.424 2.816 0.768 6.144-0.768 7.424-4.096 1.28-3.072 1.792-6.656 2.304-9.984 0.256-2.304-1.28-4.096-3.584-4.864-2.56-0.768-4.864-0.256-6.656 1.536-2.816 2.816-4.096 6.4-4.352 9.984zM227.84 207.104c0-4.608-1.024-8.704-5.888-11.008-3.072-1.28-6.144-0.768-8.448 1.536-5.632 5.632-7.168 12.544-5.632 20.224 0.768 3.84 3.328 6.144 7.168 6.656 3.584 0.512 6.656-0.768 8.704-3.84 2.816-4.096 4.096-8.704 4.096-13.568zM244.224 213.248c0 5.632 2.304 9.728 5.632 11.008 4.608 1.792 9.216 0 11.776-4.352 2.816-5.12 3.84-10.496 3.072-16.128-0.512-3.584-3.328-6.912-7.168-7.68-2.816-0.768-6.4 0.768-8.704 3.584-3.328 4.096-4.352 9.216-4.608 13.568zM370.176 209.92c0 1.536 0 3.072 0 4.608 0 5.376 3.84 9.216 9.216 9.472 6.656 0.256 10.752-3.072 11.776-9.984 0.768-5.632 1.024-11.008-3.584-15.104s-14.080-2.56-16.896 3.072c-0.256 0.512-0.256 1.536-0.256 2.304-0.256 1.792-0.256 3.84-0.256 5.632 0 0 0 0 0 0zM426.496 209.664c0.256 0 0.512 0 0.768 0 1.536-0.256 4.352-0.256 4.352-0.768 0.512-2.56 1.024-5.12-1.024-7.424-3.328-3.84-7.68-5.376-12.544-4.608-3.072 0.512-4.864 2.56-5.376 5.12-0.256 2.304 1.28 5.12 4.352 6.4 1.536 0.768 3.072 1.024 4.608 1.28 1.792 0.256 3.328 0 4.864 0zM327.936 211.456c-1.28 5.12 0.768 9.984 3.328 11.776 3.84 2.56 8.96 1.024 10.24-3.328 0.256-0.768-0.512-2.304-1.28-2.816-3.84-2.048-8.192-3.84-12.288-5.632zM259.328 274.176c0-1.024 0-2.048-0.256-3.072-0.512-1.792-1.536-3.328-3.328-2.816-1.28 0.256-2.816 1.792-3.072 2.816-0.512 2.048-0.512 4.352 0 6.144 0.256 1.28 1.792 2.56 2.816 2.816 1.792 0.256 3.072-1.024 3.328-2.816 0.512-0.768 0.512-2.048 0.512-3.072z" />
<glyph unicode="&#xe62e;" d="M252.16 459.008c13.824-14.592 27.904-28.928 41.472-43.776 24.832-26.624 49.408-53.504 73.472-80.64 4.352-4.864 7.168-12.544 7.424-18.944 1.024-17.664 0.256-35.328 0.256-54.016-10.24 0-19.968 0-30.464 0 0 17.664 0 34.816 0 53.76-4.096 0-7.424 0-10.496 0-25.6 0-50.944 0-76.544 0-13.568 0-14.592 1.024-14.592 14.080 0 29.44-0.256 59.136 0.256 88.576 0 7.424-2.048 9.472-9.472 9.472-54.528-0.256-108.8-0.256-163.328-0.256-15.36 0-20.48-5.376-20.48-20.736 0-121.6 0-243.456 0-365.056 0-15.36 4.864-20.48 19.968-20.48 84.992 0 169.984 0 254.976 0 14.848 0 19.712 5.12 19.968 20.48 0 5.632 0 11.008 0 16.896 10.496 0 19.712 0 28.928 0 9.472-42.752-15.872-68.864-49.664-68.608-81.408 0.768-163.072 0.256-244.48 0.256-37.376 0-47.872 7.168-60.416 40.96 0 128.768 0 257.792 0 386.56 5.632 9.728 9.984 20.736 17.664 28.672 5.632 6.144 15.616 8.448 23.552 12.544 63.744 0.256 128 0.256 192 0.256zM258.56 408.832c0-27.392 0-52.992 0-78.080 23.808 0 46.848 0 71.424 0-24.064 26.368-47.36 51.456-71.424 78.080zM321.28 68.608c-49.152 0-98.304 0-147.456 0-19.712 0-26.88 7.168-26.88 27.136 0 43.008 0 85.76 0 128.768 0 18.944 7.68 26.368 26.624 26.624 98.56 0 197.376 0 295.936 0 19.2 0 27.136-7.936 27.136-27.392 0-42.752 0-85.248 0-128 0-19.712-7.424-27.392-26.88-27.392-49.408 0.256-99.072 0.256-148.48 0.256zM284.16 111.36c14.592 0 28.672-0.512 42.496 0 20.992 0.768 34.56 13.312 38.912 35.84 4.608 24.32-4.352 46.336-22.016 54.528-2.304 1.024-4.608 2.56-6.912 2.56-17.152 0.256-34.56 0-52.224 0-0.256-30.208-0.256-60.928-0.256-92.928zM196.608 205.056c0-31.488 0-62.208 0-93.184 6.656 0 12.8 0 19.456 0 0 5.888 0 11.264 0 16.384 0 5.376 0 11.008 0 16.128 12.032 0.768 22.784 0.512 33.024 2.56 14.080 2.56 22.016 14.848 21.248 29.952-0.768 15.616-9.728 27.136-24.576 27.904-16.128 1.28-32.256 0.256-49.152 0.256zM402.432 165.888c0 8.448 0 15.36 0 23.040 15.104 0 29.184 0 43.776 0 0 5.888 0 11.008 0 16.128-22.016 0-43.264 0-64.256 0 0-31.744 0-62.72 0-93.44 6.912 0 12.8 0 20.224 0 0 13.056 0 25.6 0 38.912 13.568 0 25.856 0 38.4 0 0 5.376 0 9.728 0 15.104-12.8 0.256-25.088 0.256-38.144 0.256zM304.64 188.416c13.056-0.256 27.136 3.584 35.84-9.472 7.936-12.288 8.192-26.112 1.536-39.168-7.936-15.616-23.296-10.752-37.376-11.52 0 20.224 0 39.936 0 60.16zM216.576 161.792c0 9.472 0 17.92 0 27.392 7.936 0 15.872 0.768 23.808-0.256 7.424-1.024 10.752-6.656 10.24-14.336-0.256-7.68-4.352-12.288-11.776-12.8-7.168-0.256-14.336 0-22.272 0z" />
</font>
</defs>
</svg>
